<svg xmlns="http://www.w3.org/2000/svg" viewBox="0 0 29 28">
<symbol id="image-diskette">
<path fill="currentColor" d="M.5 0h2.15v2.15H.5zm0 2.15h2.15V4.3H.5zm0 2.16h2.15v2.15H.5zm0 2.15h2.15v2.15H.5zm0 2.16h2.15v2.15H.5zm0 2.15h2.15v2.15H.5zm0 2.15h2.15v2.15H.5zm0 2.16h2.15v2.15H.5zm0 2.15h2.15v2.15H.5zm0 2.15h2.15v2.15H.5zm0 2.16h2.15v2.15H.5zm0 2.15h2.15v2.15H.5zm0 2.16h2.15V28H.5zM24.2 0v2.15h-2.16V0zm-2.16 0v2.15h-2.15V0zm-2.16 0v2.15h-2.15V0zm-2.15 0v2.15h-2.15V0zm-2.15 0v2.15h-2.15V0zm-2.16 0v2.15h-2.15V0zm-2.15 0v2.15H9.12V0zM9.12 0v2.15H6.97V0zM6.96 0v2.15H4.81V0zM4.8 0v2.15H2.67V0zm21.55 2.16V4.3H24.2V2.16zM6.96 4.3v2.16H4.8V4.3zm0-2.15V4.3H4.81V2.15zm0 4.31v2.15H4.81V6.46zM22.04 4.3v2.16h-2.15V4.3zm0-2.15V4.3H19.9V2.15zm0 4.31v2.15H19.9V6.46zM17.73 4.3v2.16h-2.15V4.3zm0-2.15V4.3h-2.15V2.15zm0 4.31v2.15h-2.15V6.46zm4.3 2.16v2.15h-2.15V8.62zm-2.15-.01v2.15h-2.15V8.61zm-2.15 0v2.15h-2.15V8.61zm-2.16.01v2.15h-2.15V8.62zm-2.15-.01v2.15h-2.15V8.61zm-2.16.01v2.15H9.11V8.62zm-2.15 0v2.15H6.96V8.62zm-2.15-.01v2.15H4.8V8.61zm17.23 6.46v2.15h-2.15v-2.15zm-2.15.01v2.15h-2.15v-2.15zm-2.16-.01v2.15h-2.15v-2.15zm-2.15.01v2.15h-2.15v-2.15zm-2.16 0v2.15h-2.15v-2.15zm-2.15-.01v2.15h-2.15v-2.15zm-2.15.01v2.15H9.12v-2.15zm-2.16 0v2.15H6.96v-2.15zm-2.15 0v2.15H4.8v-2.15zm17.24 2.15v2.15h-2.16v-2.15zm-17.24 0v2.15H4.81v-2.15zm17.24 2.15v2.15h-2.15v-2.15zm-17.23 0v2.15H4.82v-2.15zm17.23 2.16v2.15h-2.16v-2.15zm-17.24 0v2.15H4.8v-2.15zm0 2.16v2.14H4.81V23.7zm17.24-.01v2.15h-2.15v-2.15zm2.14 2.16V28H24.2v-2.15zm-2.15-.01V28h-2.15v-2.15zm-2.16.01V28h-2.15v-2.15zm-2.15-.01V28h-2.15v-2.15zm-2.15.01V28h-2.15v-2.15zm-2.16 0V28h-2.15v-2.15zm-2.15-.01V28h-2.15v-2.15zm-2.15.01V28H9.12v-2.15zm-2.16 0V28H6.96v-2.15zm-2.15-.01V28H4.8v-2.15zm-2.16.01V28H2.65v-2.15zM28.5 28h-2.15v-2.15h2.15zm0-2.16h-2.15V23.7h2.15zm0-2.14h-2.15v-2.16h2.15zm0-2.16h-2.15v-2.15h2.15zm0-2.15h-2.15v-2.15h2.15zm0-2.16h-2.15v-2.15h2.15zm0-2.16h-2.15v-2.15h2.15z"/>
<path fill="currentColor" d="M28.5 12.93h-2.15v-2.15h2.15zm0-2.16h-2.15V8.62h2.15zm0-2.16h-2.15V6.46h2.15zm0-2.15h-2.15V4.31h2.15z"/>
</symbol>
</svg>
